<mxfile host="app.diagrams.net" modified="2023-02-08T03:40:40.492Z" agent="5.0 (Windows NT 10.0; Win64; x64) AppleWebKit/537.36 (KHTML, like Gecko) Chrome/97.0.4692.71 Safari/537.36" etag="oAOAaAeRw5MmlgzQqIln" version="20.8.16" type="github">
  <diagram id="QuGgW0h0LbxA8EMJTxq_" name="Page-1">
    <mxGraphModel dx="1160" dy="703" grid="0" gridSize="10" guides="1" tooltips="1" connect="1" arrows="1" fold="1" page="1" pageScale="1" pageWidth="827" pageHeight="1169" background="#FFFFFF" math="0" shadow="0">
      <root>
        <mxCell id="0" />
        <mxCell id="1" parent="0" />
        <mxCell id="wX110ZMbgT9tTP4B3hMa-4" value="" style="verticalAlign=top;verticalLabelPosition=bottom;labelPosition=center;align=center;html=1;outlineConnect=0;fillColor=#008a00;strokeColor=#005700;gradientDirection=north;strokeWidth=2;shape=mxgraph.networks.switch;fontColor=#ffffff;rounded=0;" parent="1" vertex="1">
          <mxGeometry x="270" y="350" width="100" height="30" as="geometry" />
        </mxCell>
        <mxCell id="wX110ZMbgT9tTP4B3hMa-5" value="" style="verticalAlign=top;verticalLabelPosition=bottom;labelPosition=center;align=center;html=1;outlineConnect=0;fillColor=#1ba1e2;gradientDirection=north;strokeWidth=2;shape=mxgraph.networks.server;strokeColor=#006EAF;fontColor=#ffffff;rounded=0;" parent="1" vertex="1">
          <mxGeometry x="100" y="470" width="60" height="70" as="geometry" />
        </mxCell>
        <mxCell id="wX110ZMbgT9tTP4B3hMa-6" value="" style="fontColor=#0066CC;verticalAlign=top;verticalLabelPosition=bottom;labelPosition=center;align=center;html=1;outlineConnect=0;fillColor=#CCCCCC;strokeColor=#6881B3;gradientColor=none;gradientDirection=north;strokeWidth=2;shape=mxgraph.networks.pc;rounded=0;" parent="1" vertex="1">
          <mxGeometry x="486" y="240" width="100" height="70" as="geometry" />
        </mxCell>
        <mxCell id="wX110ZMbgT9tTP4B3hMa-7" value="" style="endArrow=classic;html=1;rounded=0;fillColor=#647687;strokeColor=#314354;" parent="1" source="wX110ZMbgT9tTP4B3hMa-4" target="wX110ZMbgT9tTP4B3hMa-5" edge="1">
          <mxGeometry width="50" height="50" relative="1" as="geometry">
            <mxPoint x="380" y="480" as="sourcePoint" />
            <mxPoint x="430" y="430" as="targetPoint" />
          </mxGeometry>
        </mxCell>
        <mxCell id="w6gNjCNM0jD2FQa_cdgn-4" value="" style="html=1;whiteSpace=wrap;shape=isoCube2;backgroundOutline=1;isoAngle=15;fillColor=#dae8fc;strokeColor=#A9C4EB;" vertex="1" parent="1">
          <mxGeometry x="141" y="509" width="560" height="294" as="geometry" />
        </mxCell>
        <mxCell id="w6gNjCNM0jD2FQa_cdgn-6" value="" style="html=1;whiteSpace=wrap;shape=isoCube2;backgroundOutline=1;isoAngle=15;fillColor=#e3c800;fontColor=#000000;strokeColor=#AB9100;opacity=10;strokeWidth=2;" vertex="1" parent="1">
          <mxGeometry x="156" y="319" width="560" height="294" as="geometry" />
        </mxCell>
      </root>
    </mxGraphModel>
  </diagram>
</mxfile>
